<svg xmlns="http://www.w3.org/2000/svg" viewBox="0 0 1600 620" role="img" aria-labelledby="t d"><title id="t">Imprescindibles VCC</title><desc id="d">Mapa, libreta, brújula y cámara como símbolo visual de los lugares imprescindibles de un viaje.</desc><defs><linearGradient id="bg" x1="0" x2="1"><stop stop-color="#59675f"/><stop offset=".48" stop-color="#d8c7aa"/><stop offset="1" stop-color="#aa8d68"/></linearGradient><filter id="shadow"><feDropShadow dx="0" dy="12" stdDeviation="14" flood-opacity=".25"/></filter><pattern id="grid" width="88" height="66" patternUnits="userSpaceOnUse"><path d="M0 12L22 0l30 15 36-9M8 60l28-25 28 10 24-20" fill="none" stroke="#6d7c72" stroke-width="2" opacity=".45"/></pattern></defs><rect width="1600" height="620" fill="url(#bg)"/><rect width="1600" height="620" fill="url(#grid)" opacity=".8"/><path d="M0 0h560v620H0z" fill="#26332f" opacity=".36"/><g opacity=".5" fill="none" stroke="#fff" stroke-width="3"><path d="M70 140c150 70 230-60 390 20S710 80 870 145s250-55 410 30 250-30 320 0"/><path d="M20 470c180-80 280 50 440-25s260 45 430-25 280 45 470-20"/></g><g transform="translate(770 95) rotate(-7)" filter="url(#shadow)"><rect width="360" height="450" rx="18" fill="#c8a878"/><rect x="22" y="20" width="316" height="410" rx="10" fill="#d9bd91" stroke="#8d6d4f" stroke-width="3"/><path d="M72 295c55-35 88 10 126-18s73-14 110-52" fill="none" stroke="#9b1f28" stroke-width="4" stroke-dasharray="10 10"/><path d="M302 219l-36 2 23 28z" fill="none" stroke="#9b1f28" stroke-width="4"/><text x="180" y="135" text-anchor="middle" font-family="Georgia,serif" font-size="34" font-style="italic" fill="#2d2925">Pequeños lugares</text><text x="180" y="182" text-anchor="middle" font-family="Georgia,serif" font-size="34" font-style="italic" fill="#2d2925">Grandes historias</text><path d="M190 220c18-27 51-3 30 22l-30 30-30-30c-21-25 12-49 30-22z" fill="none" stroke="#2d2925" stroke-width="4"/></g><g transform="translate(1160 65) rotate(8)" filter="url(#shadow)"><rect x="0" y="65" width="390" height="290" rx="28" fill="#242523"/><rect x="48" y="0" width="210" height="105" rx="18" fill="#343633"/><rect x="285" y="35" width="72" height="48" rx="8" fill="#171817"/><circle cx="205" cy="210" r="126" fill="#111" stroke="#777" stroke-width="15"/><circle cx="205" cy="210" r="92" fill="#1d2524" stroke="#111" stroke-width="12"/><circle cx="205" cy="210" r="50" fill="#0c1112" stroke="#64716d" stroke-width="8"/><circle cx="185" cy="190" r="14" fill="#b7d5cf" opacity=".65"/><rect x="28" y="120" width="48" height="24" rx="5" fill="#9c9b91"/></g><g transform="translate(620 390)" filter="url(#shadow)"><circle cx="0" cy="0" r="92" fill="#272b29" stroke="#c6b184" stroke-width="9"/><circle cx="0" cy="0" r="68" fill="#eee4cf"/><path d="M0-55l18 55L0 55-18 0z" fill="#9b1f28"/><path d="M-55 0h110M0-55v110" stroke="#5a5a54" stroke-width="2"/><circle r="8" fill="#2c2d2b"/></g></svg>